<?xml version="1.0" encoding="UTF-8"?>
<svg version="1.1" xmlns="http://www.w3.org/2000/svg" width="200" height="200">
<path d="M0 0 C66 0 132 0 200 0 C200 66 200 132 200 200 C134 200 68 200 0 200 C0 134 0 68 0 0 Z " fill="#061019" transform="translate(0,0)"/>
<path d="M0 0 C8.21896797 6.96585178 15.28766996 16.33555928 16.7277832 27.33374023 C16.86355538 29.80257708 16.89378338 32.242503 16.86328125 34.71484375 C16.85425781 35.59261475 16.84523438 36.47038574 16.8359375 37.37475586 C16.47890606 50.88368511 12.11415014 61.29151579 2.52734375 70.9375 C-5.45090794 78.02734375 -5.45090794 78.02734375 -9.57421875 78.02734375 C-9.57421875 79.67734375 -9.57421875 81.32734375 -9.57421875 83.02734375 C-10.56421875 83.52234375 -10.56421875 83.52234375 -11.57421875 84.02734375 C-11.78046875 82.78984375 -11.98671875 81.55234375 -12.19921875 80.27734375 C-13.06227852 76.8970263 -13.54594269 76.05427333 -16.19921875 73.52734375 C-20.23709754 71.73273095 -23.2366175 71.0423108 -27.57421875 72.02734375 C-32.9594253 75.31830331 -34.01128384 78.11051874 -35.57421875 84.02734375 C-37.69921875 85.46484375 -37.69921875 85.46484375 -39.57421875 86.02734375 C-40.56421875 85.03734375 -40.56421875 85.03734375 -41.57421875 84.02734375 C-40.91421875 83.69734375 -40.25421875 83.36734375 -39.57421875 83.02734375 C-40.34765625 82.73601562 -41.12109375 82.4446875 -41.91796875 82.14453125 C-48.59645736 79.51611618 -54.18778693 76.78272917 -59.57421875 72.02734375 C-60.25226563 71.44210938 -60.9303125 70.856875 -61.62890625 70.25390625 C-69.67015455 62.81954461 -75.30216686 52.95845157 -75.91015625 41.86328125 C-76.22358113 26.4900479 -73.31703008 14.25767244 -62.47265625 2.80859375 C-44.91960166 -13.81408693 -19.0261416 -14.57997194 0 0 Z " fill="#081219" transform="translate(153.57421875,20.97265625)"/>
<path d="M0 0 C3.38297413 0.17805127 4.76272061 0.78837244 7.3125 3.0625 C7.869375 3.701875 8.42625 4.34125 9 5 C8.67 5.66 8.34 6.32 8 7 C7.34 6.67 6.68 6.34 6 6 C5.896875 6.86625 5.79375 7.7325 5.6875 8.625 C5 12 5 12 3.5625 14.6875 C1.38924588 19.29479874 0.75761757 23.99081086 0 29 C1.051875 27.824375 1.051875 27.824375 2.125 26.625 C5.15102555 23.86210711 7.1739895 23.22106718 11 22 C13.33531458 20.00064306 13.33531458 20.00064306 15 18 C14.4225 17.61328125 13.845 17.2265625 13.25 16.828125 C12.5075 16.30734375 11.765 15.7865625 11 15.25 C10.2575 14.73953125 9.515 14.2290625 8.75 13.703125 C8.1725 13.14109375 7.595 12.5790625 7 12 C7 10.68 7 9.36 7 8 C10.83663072 9.34929464 13.65172569 11.07751025 16.8125 13.625 C17.60269531 14.25664063 18.39289063 14.88828125 19.20703125 15.5390625 C19.79871094 16.02117187 20.39039063 16.50328125 21 17 C21.33 16.34 21.66 15.68 22 15 C28.625 15.75 28.625 15.75 32 18 C32.495 17.505 32.495 17.505 33 17 C35.12112042 16.78964095 37.24753419 16.63149899 39.375 16.5 C42.85092908 16.28419953 45.6926476 16.1024508 49 15 C49.020625 13.96875 49.04125 12.9375 49.0625 11.875 C50.14706893 7.39211507 51.38903528 5.84160315 54.96875 3.10546875 C58.61834183 1.11924858 60.88229616 1.34639622 65 2 C68.75212276 4.01502889 70.63644095 5.45466142 73 9 C73.265625 11.19140625 73.265625 11.19140625 73.25 13.5625 C73.25773437 14.74005859 73.25773437 14.74005859 73.265625 15.94140625 C73 18 73 18 71 20 C69.02 19.34 67.04 18.68 65 18 C65.495 18.99 65.495 18.99 66 20 C67.485 20.495 67.485 20.495 69 21 C69 22.65 69 24.3 69 26 C67.02 26.66 65.04 27.32 63 28 C63 28.66 63 29.32 63 30 C60.3125 30.875 60.3125 30.875 57 31 C54.86499088 29.20703368 53.61093091 27.32163572 52 25 C51.01 27.31 50.02 29.62 49 32 C50.093125 31.979375 51.18625 31.95875 52.3125 31.9375 C56 32 56 32 59 33 C58.49607061 37.40938215 57.0379639 39.78843816 54 43 C50.73040093 45.28871935 47.92026737 45.17819397 44 45 C44.2475 45.7425 44.495 46.485 44.75 47.25 C45 50 45 50 43.375 52.3125 C40.63099885 54.26218503 39.28993102 54.36554789 36 54 C35.773125 54.5775 35.54625 55.155 35.3125 55.75 C33.58776376 58.7066907 31.91897189 60.20881271 29 62 C25.8125 61.75 25.8125 61.75 23 61 C22.34 61 21.68 61 21 61 C21.44730469 61.38929688 21.89460938 61.77859375 22.35546875 62.1796875 C30.60567457 69.81420632 34.80168613 79.48013858 35.375 90.6875 C35.28120227 93.87110536 34.91625723 95.16748553 33.4375 98.125 C31 100 31 100 28 100.1875 C22.30071753 98.94039224 17.09582395 95.73618133 12 93 C11.88397569 94.35917681 11.88397569 94.35917681 14 96.0625 C14.66 96.701875 15.32 97.34125 16 98 C10.90637029 97.13247183 6.75067846 94.01164888 2.38671875 91.3984375 C-1.6300939 89.73982282 -3.82701334 89.96818966 -8 91 C-10.07006533 92.1488697 -10.07006533 92.1488697 -11 94 C-10.72963853 96.97397616 -10.14553974 97.85446026 -8 100 C-11.63 100 -15.26 100 -19 100 C-20.20593363 96.3821991 -19.38299393 95.29832795 -17.828125 91.9765625 C-16.95622052 89.89550747 -16.43326498 87.88645755 -15.9375 85.6875 C-15 82 -15 82 -13 80 C-9.83310924 79.7184986 -7.6174684 79.72626613 -4.69140625 81.0234375 C-1.49004377 82.18503492 0.86120239 82.06326653 4.25 81.875 C10.44740854 81.75541323 14.66063777 82.95766317 20 86 C20.99 86.495 20.99 86.495 22 87 C19.61932898 80.82038586 17.00224091 74.90095628 14 69 C13.06257459 66.18772378 12.86529156 64.41253156 12.875 61.5 C12.87113281 60.33984375 12.87113281 60.33984375 12.8671875 59.15625 C13 57 13 57 14 54 C15.65 54 17.3 54 19 54 C19 51.36 19 48.72 19 46 C20.32 46.33 21.64 46.66 23 47 C22.67 46.67 22.34 46.34 22 46 C21.95907063 43.66702567 21.95758277 41.33294775 22 39 C24.31 39.66 26.62 40.32 29 41 C28.236875 40.34 27.47375 39.68 26.6875 39 C23.43223306 35.79097265 22.38543586 32.30214295 21 28 C20.38125 28.58007812 20.38125 28.58007812 19.75 29.171875 C10.42625794 37.57989239 -0.43482502 41.60799234 -13 41 C-13.64211494 31.89623702 -12.84087225 25.76470392 -8 18 C-5.1218272 13.36565397 -3.40018441 9.30109327 -2.4921875 3.91796875 C-2 2 -2 2 0 0 Z " fill="#0A9ECC" transform="translate(69,90)"/>
<path d="M0 0 C1.98 0.66 3.96 1.32 6 2 C5.125 9.75 5.125 9.75 4 12 C6.475 12.495 6.475 12.495 9 13 C9.33 10.03 9.66 7.06 10 4 C13 3 13 3 17 4 C16.34 7.63 15.68 11.26 15 15 C15.886875 15.2475 16.77375 15.495 17.6875 15.75 C21.6798152 17.25653404 25.04062332 19.08124663 27 23 C27.65214181 27.05318516 27.88303089 30.58406125 25.66015625 34.1484375 C24.17516088 35.8605498 22.66268064 37.46103072 21 39 C22.2684375 40.2065625 22.2684375 40.2065625 23.5625 41.4375 C25.25635722 43.46245112 25.95918286 44.57698605 26.21484375 47.2265625 C25.80158365 51.71982687 24.98710741 55.49787407 22 59 C17.382595 61.82212529 13.99707863 62.33953996 8.625 62.1875 C7.37976563 62.16042969 6.13453125 62.13335937 4.8515625 62.10546875 C3.91054687 62.07066406 2.96953125 62.03585938 2 62 C1.01 64.97 0.02 67.94 -1 71 C-2.98 71 -4.96 71 -7 71 C-6.67 67.37 -6.34 63.74 -6 60 C-7.485 59.505 -7.485 59.505 -9 59 C-9.99 63.95 -9.99 63.95 -11 69 C-12.98 68.67 -14.96 68.34 -17 68 C-16.85892253 66.54119891 -16.71197585 65.08296449 -16.5625 63.625 C-16.48128906 62.81289062 -16.40007812 62.00078125 -16.31640625 61.1640625 C-16 59 -16 59 -15 57 C-15.69867188 56.86722656 -16.39734375 56.73445313 -17.1171875 56.59765625 C-18.02726562 56.42105469 -18.93734375 56.24445313 -19.875 56.0625 C-20.77992187 55.88847656 -21.68484375 55.71445313 -22.6171875 55.53515625 C-25 55 -25 55 -27 54 C-26.505 51.03 -26.505 51.03 -26 48 C-23.10765685 47.17361624 -21.11257569 47 -18 47 C-15.36 36.77 -12.72 26.54 -10 16 C-12.97 15.505 -12.97 15.505 -16 15 C-17.125 10.25 -17.125 10.25 -16 8 C-11.30976546 8.56606279 -6.65499974 9.18537505 -2 10 C-1.34 6.7 -0.68 3.4 0 0 Z " fill="#F58302" transform="translate(121,20)"/>
<path d="M0 0 C10.24339582 7.41928202 16.42443272 16.96610153 20 29 C20.19335938 29.60070313 20.38671875 30.20140625 20.5859375 30.8203125 C23.25410801 44.86596478 20.51327324 59.14498632 13.01171875 71.17578125 C7.45911189 78.97099438 0.64065227 84.83484626 -8 89 C-8.66 89 -9.32 89 -10 89 C-10.3125 86.69921875 -10.3125 86.69921875 -10 84 C-7.875 82.33203125 -7.875 82.33203125 -5 80.8125 C4.71838656 75.05901504 10.90005424 66.10163474 14.07421875 55.3671875 C16.95195657 43.35997894 16.4761333 29.65692821 10 19 C3.36884196 8.56785558 -5.97154136 1.86730666 -17.5 -2.25 C-27.43460729 -4.42933085 -38.62607725 -3.90580115 -48 0 C-48.6703125 0.25523438 -49.340625 0.51046875 -50.03125 0.7734375 C-60.93760158 5.49086735 -68.51599188 14.70726585 -73.02734375 25.4453125 C-76.62267546 36.28101268 -76.85982063 50.09371437 -72.2578125 60.6171875 C-64.63726265 75.05363287 -54.58225194 83.05251941 -39 88 C-40.125 89.5 -40.125 89.5 -42 91 C-49.86580537 91.69404165 -55.62595304 87.57467246 -61.6875 82.94921875 C-71.39296251 74.61968309 -79.75937192 63.73792718 -81.27050781 50.65869141 C-82.45542921 33.61634433 -78.58899865 19.64618556 -67.38549805 6.46337891 C-60.61783112 -0.68470842 -51.35704734 -5.37565283 -42 -8 C-41.37222656 -8.19078125 -40.74445313 -8.3815625 -40.09765625 -8.578125 C-26.05606289 -11.4021326 -11.95475288 -7.3020028 0 0 Z " fill="#0C99C6" transform="translate(154,15)"/>
<path d="M0 0 C2.1875 2.4375 2.1875 2.4375 2.54296875 5.6796875 C2.13283194 10.01541951 0.95658675 12.30400677 -1.3125 16 C-1.66763672 16.59425781 -2.02277344 17.18851563 -2.38867188 17.80078125 C-3.51668117 19.68806569 -4.66297623 21.56325549 -5.8125 23.4375 C-7.3302173 25.92734578 -8.82632312 28.42873363 -10.3125 30.9375 C-10.9828125 32.0409375 -11.653125 33.144375 -12.34375 34.28125 C-13.92282454 37.6745804 -14.27826812 39.74347695 -13.8125 43.4375 C-11.8307965 45.2494182 -11.8307965 45.2494182 -8.8125 46.4375 C-7.65621094 46.96537109 -7.65621094 46.96537109 -6.4765625 47.50390625 C-4.2645829 48.50522825 -2.04367931 49.47989145 0.1875 50.4375 C0.1875 50.7675 0.1875 51.0975 0.1875 51.4375 C-8.7225 51.4375 -17.6325 51.4375 -26.8125 51.4375 C-26.8125 45.89442884 -26.8125 45.89442884 -25 42.8125 C-21.63354454 36.49593517 -20.22657853 29.60619693 -18.875 22.625 C-18.00160807 18.47452212 -16.38766584 15.78521559 -13.8125 12.4375 C-18.12976929 13.35773427 -22.38867338 14.31243641 -26.625 15.5625 C-29.8125 16.4375 -29.8125 16.4375 -33.8125 16.4375 C-32.31638495 9.7880998 -28.29668033 5.17288719 -23.03125 1.0390625 C-16.60423657 -2.80080569 -6.69048486 -3.67102613 0 0 Z " fill="#0A9FCE" transform="translate(142.8125,137.5625)"/>
<path d="M0 0 C1.1540694 3.4622082 0.79627697 4.52684224 -0.25 7.9375 C-0.62898438 9.21947266 -0.62898438 9.21947266 -1.015625 10.52734375 C-2 13 -2 13 -3.50878906 14.8425293 C-5.24272468 17.3511719 -5.52623555 18.97861507 -5.84375 21.9921875 C-5.95589844 22.94480469 -6.06804687 23.89742187 -6.18359375 24.87890625 C-6.28800781 25.86761719 -6.39242187 26.85632813 -6.5 27.875 C-8.02302839 42.18394578 -8.02302839 42.18394578 -13.3125 47.1875 C-19.22140221 51.17257358 -23.98196792 52.54772682 -31 53 C-28.33333333 51 -25.66666667 49 -23 47 C-23.99 47.495 -23.99 47.495 -25 48 C-26.70702735 48.06996014 -28.41668003 48.08440154 -30.125 48.0625 C-31.03507813 48.05347656 -31.94515625 48.04445312 -32.8828125 48.03515625 C-33.58148438 48.02355469 -34.28015625 48.01195312 -35 48 C-35 46 -35 46 -32.6875 43.5 C-29.2098069 40.26493665 -27.88427347 39.03239418 -23.0546875 38.85546875 C-19.96638278 38.53152273 -19.96638278 38.53152273 -17.72753906 36.52197266 C-16.69387933 34.48744301 -15.8870353 32.46334464 -15.125 30.3125 C-14.84398437 29.60416016 -14.56296875 28.89582031 -14.2734375 28.16601562 C-13.04614372 25.03120627 -11.96396828 21.88502238 -10.95703125 18.671875 C-9.67845924 15.10231069 -7.4785978 12.84131943 -5 10 C-2.88200032 6.78377826 -1.34013637 3.60805947 0 0 Z " fill="#0B9BC8" transform="translate(174,75)"/>
<path d="M0 0 C0.66 0.33 1.32 0.66 2 1 C1.06027344 2.22976562 1.06027344 2.22976562 0.1015625 3.484375 C-0.72412933 4.57278696 -1.54964068 5.66133587 -2.375 6.75 C-2.7875 7.28882813 -3.2 7.82765625 -3.625 8.3828125 C-7.53639609 13.55594927 -9.29735743 16.45813657 -9 23 C-8.42475586 23.11174561 -7.84951172 23.22349121 -7.25683594 23.33862305 C-3.09197072 24.55915743 0.23031179 27.3405465 3.75 29.8125 C4.54277344 30.34681641 5.33554687 30.88113281 6.15234375 31.43164062 C7.27576172 32.21764648 7.27576172 32.21764648 8.421875 33.01953125 C9.10862305 33.49495361 9.79537109 33.97037598 10.50292969 34.46020508 C12 36 12 36 12 40 C8.63063984 39.38369398 6.56160716 38.15641505 3.84765625 36.09375 C2.68266602 35.22556641 2.68266602 35.22556641 1.49414062 34.33984375 C-0.12447009 33.11515998 -1.74166415 31.88860159 -3.35742188 30.66015625 C-4.13537109 30.08136719 -4.91332031 29.50257812 -5.71484375 28.90625 C-6.41730225 28.37322266 -7.11976074 27.84019531 -7.84350586 27.29101562 C-10.23771177 25.8576905 -12.25374271 25.39167883 -15 25 C-15.24492188 25.65355469 -15.48984375 26.30710937 -15.7421875 26.98046875 C-17.35582298 30.85419615 -19.23166783 34.56932209 -21.125 38.3125 C-21.49753906 39.05306641 -21.87007812 39.79363281 -22.25390625 40.55664062 C-23.16744806 42.37201217 -24.08347487 44.18613282 -25 46 C-26.35874007 41.9237798 -24.99660352 39.10061973 -23.6875 35.1875 C-23.46126953 34.48818359 -23.23503906 33.78886719 -23.00195312 33.06835938 C-22.34427281 31.04224913 -21.6739253 29.02075635 -21 27 C-20.45666016 25.35064453 -20.45666016 25.35064453 -19.90234375 23.66796875 C-19.02356421 21.06967254 -18.04416584 18.53583133 -17 16 C-16.01 16 -15.02 16 -14 16 C-13.74992187 15.26007813 -13.49984375 14.52015625 -13.2421875 13.7578125 C-11.89880152 10.77532664 -10.47014847 9.1316523 -8.125 6.875 C-7.10792969 5.88113281 -7.10792969 5.88113281 -6.0703125 4.8671875 C-4.12299874 3.11093094 -2.1248867 1.53411103 0 0 Z " fill="#0B9AC6" transform="translate(54,53)"/>
<path d="M0 0 C5.87711622 -0.48975968 10.09611773 0.62928552 15 4 C17 7 17 7 16.75 9.5625 C16 12 16 12 14 14 C10.8125 14.23046875 10.8125 14.23046875 7 14.1875 C5.741875 14.18105469 4.48375 14.17460938 3.1875 14.16796875 C0 14 0 14 -2 13 C-1.85851011 11.3954444 -1.71164314 9.79136233 -1.5625 8.1875 C-1.48128906 7.29417969 -1.40007812 6.40085937 -1.31640625 5.48046875 C-1 3 -1 3 0 0 Z " fill="#111516" transform="translate(117,59)"/>
<path d="M0 0 C8.96177062 1.29979879 8.96177062 1.29979879 12.6875 3.8125 C14 6 14 6 13.875 8.625 C13 11 13 11 11 13 C8.72265625 13.23046875 8.72265625 13.23046875 6.0625 13.1875 C5.18722656 13.18105469 4.31195313 13.17460938 3.41015625 13.16796875 C1 13 1 13 -2 12 C-1.0625 3.96428571 -1.0625 3.96428571 0 0 Z " fill="#111516" transform="translate(122,40)"/>
<path d="M0 0 C0.99 0.33 1.98 0.66 3 1 C2.01 1.495 2.01 1.495 1 2 C1.37330824 4.72574271 1.79194601 5.80822085 3.84765625 7.703125 C4.57855469 8.21359375 5.30945313 8.7240625 6.0625 9.25 C6.79597656 9.77078125 7.52945313 10.2915625 8.28515625 10.828125 C9.13400391 11.40820312 9.13400391 11.40820312 10 12 C6.44051264 16.13359822 3.16950996 18.04725384 -1.9140625 20.0078125 C-4.10799558 21.05136868 -5.39840423 22.1943793 -7 24 C-5.51654788 15.47015029 -3.96259343 7.7885457 0 0 Z " fill="#071A25" transform="translate(75,96)"/>
<path d="M0 0 C3.83663072 1.34929464 6.65172569 3.07751025 9.8125 5.625 C10.99779297 6.57246094 10.99779297 6.57246094 12.20703125 7.5390625 C12.79871094 8.02117187 13.39039062 8.50328125 14 9 C13.67 10.32 13.34 11.64 13 13 C8.72655357 12.52517262 6.86471775 10.00795363 4 7 C3.236875 6.484375 2.47375 5.96875 1.6875 5.4375 C1.130625 4.963125 0.57375 4.48875 0 4 C0 2.68 0 1.36 0 0 Z " fill="#0B90B9" transform="translate(76,98)"/>
<path d="M0 0 C0.33 0 0.66 0 1 0 C0.85904936 1.6254308 0.71207913 3.25034051 0.5625 4.875 C0.48128906 5.77992188 0.40007812 6.68484375 0.31640625 7.6171875 C0 10 0 10 -1 12 C-1.09585131 13.64356807 -1.12983511 15.29114642 -1.125 16.9375 C-1.12757812 17.81277344 -1.13015625 18.68804687 -1.1328125 19.58984375 C-1.09822003 22.14459056 -1.09822003 22.14459056 0 25 C-0.66 25 -1.32 25 -2 25 C-4.67156811 20.43607115 -5.5557956 17.28005817 -5 12 C-3.625 8.375 -3.625 8.375 -2 5 C-1.32723284 3.3357865 -0.65793165 1.67013418 0 0 Z " fill="#0E8AB1" transform="translate(79,138)"/>
<path d="M0 0 C0.33 0 0.66 0 1 0 C1.86000123 5.59000803 -0.32211904 8.55680722 -3.39453125 12.94921875 C-5 15 -5 15 -6.65625 16.6015625 C-8.52112093 18.54232934 -8.64700164 20.38781217 -9 23 C-9.66 22.34 -10.32 21.68 -11 21 C-11.99 21 -12.98 21 -14 21 C-13.49210938 20.48953125 -12.98421875 19.9790625 -12.4609375 19.453125 C-6.85601255 13.53331663 -3.31540984 7.42199702 0 0 Z " fill="#082634" transform="translate(172,74)"/>
<path d="M0 0 C2.47193291 2.96631949 4.25618453 5.51236907 6 9 C2.7 9 -0.6 9 -4 9 C-2.80100302 5.9168649 -1.52299523 2.93720508 0 0 Z " fill="#07212D" transform="translate(121,114)"/>
<path d="M0 0 C1.55318425 4.65955274 -0.05826596 8.59774801 -2 13 C-4.94888435 15.5065517 -6.14957524 16 -10 16 C-8.8553125 14.6696875 -8.8553125 14.6696875 -7.6875 13.3125 C-4.26149487 9.18968027 -1.86982589 5.03414663 0 0 Z " fill="#0E8CB3" transform="translate(174,75)"/>
<path d="M0 0 C0.66 0.33 1.32 0.66 2 1 C-3.07042254 7.47887324 -3.07042254 7.47887324 -7 9 C-8.33676205 9.65976469 -9.6705586 10.32560561 -11 11 C-7.6189962 6.86378916 -4.33409466 3.18683431 0 0 Z " fill="#0E8FB7" transform="translate(54,53)"/>
<path d="M0 0 C2 3 2 3 1.609375 5.19140625 C1.32578125 5.97386719 1.0421875 6.75632812 0.75 7.5625 C0.47671875 8.34753906 0.2034375 9.13257812 -0.078125 9.94140625 C-1 12 -1 12 -3 14 C-2.69024532 12.22868439 -2.37709575 10.45796222 -2.0625 8.6875 C-1.88847656 7.70136719 -1.71445312 6.71523437 -1.53515625 5.69921875 C-1 3 -1 3 0 0 Z " fill="#1083A7" transform="translate(31,85)"/>
<path d="M0 0 C0.33 0 0.66 0 1 0 C0.67 3.3 0.34 6.6 0 10 C-0.99 10 -1.98 10 -3 10 C-2.69201674 8.51988629 -2.378482 7.04092675 -2.0625 5.5625 C-1.88847656 4.73878906 -1.71445313 3.91507813 -1.53515625 3.06640625 C-1 1 -1 1 0 0 Z " fill="#107EA1" transform="translate(79,138)"/>
<path d="M0 0 C2.97 0.99 5.94 1.98 9 3 C7.68 3.99 6.36 4.98 5 6 C3.35 4.02 1.7 2.04 0 0 Z " fill="#092C3B" transform="translate(88,149)"/>
<path d="M0 0 C0.33 0 0.66 0 1 0 C1 2.64 1 5.28 1 8 C0.34 8 -0.32 8 -1 8 C-1.625 5.6875 -1.625 5.6875 -2 3 C-1.34 2.01 -0.68 1.02 0 0 Z " fill="#0D5C75" transform="translate(123,101)"/>
</svg>
